/* XPM */
static char *ck_on_l_2[] = {
/* width height num_colors chars_per_pixel */
"    22    18      2            2",
/* colors */
"`` c #000000",
"`. c None",

/* pixels */
"`.`.`.`.`.`.`.`.`.`.`.`.`.`.`.`.`.`.`.`.`.`.",
"`.`.`.`.`.`.`.`.`.`.`.`.`.`.`.`.`.`.`.`.`.`.",
"`.`.`.`.`.`.`.`.`.`.`.`.`.`.`.`.`.`.`.`.`.`.",
"`.`.`.`.`.`.`.`.`.`.`.`.`.`.`.`.`.`.`.`.`.`.",
"`.`.`.`.`.`.`.`.`.`.`.`.`.`.`.`.`.`.`.`.`.`.",
"`.`.`.`.`.`.`.`.`.`.`.`.`.```.`.`.`.`.`.`.`.",
"`.`.`.`.`.`.`.`.`.`.`.`.`````.`.`.`.`.`.`.`.",
"`.`.`.`.`.`.`.```.`.`.```````.`.`.`.`.`.`.`.",
"`.`.`.`.`.`.`.`````.```````.`.`.`.`.`.`.`.`.",
"`.`.`.`.`.`.`.```````````.`.`.`.`.`.`.`.`.`.",
"`.`.`.`.`.`.`.`.```````.`.`.`.`.`.`.`.`.`.`.",
"`.`.`.`.`.`.`.`.`.```.`.`.`.`.`.`.`.`.`.`.`.",
"`.`.`.`.`.`.`.`.`.`.`.`.`.`.`.`.`.`.`.`.`.`.",
"`.`.`.`.`.`.`.`.`.`.`.`.`.`.`.`.`.`.`.`.`.`.",
"`.`.`.`.`.`.`.`.`.`.`.`.`.`.`.`.`.`.`.`.`.`.",
"`.`.`.`.`.`.`.`.`.`.`.`.`.`.`.`.`.`.`.`.`.`.",
"`.`.`.`.`.`.`.`.`.`.`.`.`.`.`.`.`.`.`.`.`.`.",
"`.`.`.`.`.`.`.`.`.`.`.`.`.`.`.`.`.`.`.`.`.`."
};
