/* XPM */
static char *ck_on_l_2[] = {
/* width height num_colors chars_per_pixel */
"    22    18      4            2",
/* colors */
"`` c #CCCCCC",
" . c #EEEEEE",
" , c #444444",
"`. c None",

/* pixels */
"`.`.`.`.`.`.`.`.`.`.`.`.`.`.`.`.`.`.`.`.`.`.",
"`.`.`.`.`.`.`.`.`.`.`.`.`.`.`.`.`.`.`.`.`.`.",
"`.`.`.`.`.`.`.`.`.`.`.`.`.`.`.`.`.`.`.`.`.`.",
"`.`.`.`.`.`.`.`.`.`.`.`.`.`.`.`.`.`.`.`.`.`.",
"`.`.`.`.`.`.`.`.`.`.`.`.`.`.`.`.`.`.`.`.`.`.",
"`.`.`.`.`.`.`.`.`.`.`.`.`.```.`.`.`.`.`.`.`.",
"`.`.`.`.`.`.`.`.`.`.`.`.``` ..`.`.`.`.`.`.`.",
"`.`.`.`.`.`.`.` ,.`.`.````` ..`.`.`.`.`.`.`.",
"`.`.`.`.`.`.`.``` ,.````` ..`.`.`.`.`.`.`.`.",
"`.`.`.`.`.`.`.````````` ..`.`.`.`.`.`.`.`.`.",
"`.`.`.`.`.`.`.`.````` ..`.`.`.`.`.`.`.`.`.`.",
"`.`.`.`.`.`.`.`.`.` ..`.`.`.`.`.`.`.`.`.`.`.",
"`.`.`.`.`.`.`.`.`.`.`.`.`.`.`.`.`.`.`.`.`.`.",
"`.`.`.`.`.`.`.`.`.`.`.`.`.`.`.`.`.`.`.`.`.`.",
"`.`.`.`.`.`.`.`.`.`.`.`.`.`.`.`.`.`.`.`.`.`.",
"`.`.`.`.`.`.`.`.`.`.`.`.`.`.`.`.`.`.`.`.`.`.",
"`.`.`.`.`.`.`.`.`.`.`.`.`.`.`.`.`.`.`.`.`.`.",
"`.`.`.`.`.`.`.`.`.`.`.`.`.`.`.`.`.`.`.`.`.`."
};