/* XPM */
static char *bmp854[] = {
/* width height num_colors chars_per_pixel */
"    22    18        4            1",
/* colors */
". c #000000",
"# c #808080",
"a c None",
"b c #ffffff",
/* pixels */
"aaaaaaaaaaaaaaaaaaaaaa",
"aaa.................aa",
"aaa.#############...aa",
"aaa.aaaaaaaaaaa.#a#.aa",
"aaa.aaaaaaaaaa.#aa#.aa",
"aaa.aaaaaaaaa.#aaa#.aa",
"aaa.aaaaaaaa.#aaaa#.aa",
"aaa.aaaaaaa.#aaaaa#.aa",
"aaa.aaaaaaa.#aaaaa#.aa",
"aaa.aaaaaa.#aaaaaa#.aa",
"aaa.aaaaaa.#aaaaaa#.aa",
"aaa.aaaaa.#aaaaaaa#.aa",
"aaa.aaaaa.#aaaaaaa#.aa",
"aaa.aaaa.#aaaaaaaa#.aa",
"aaa.aaa.#aaaaaaaaa#.aa",
"aaa...#aaaaaaaaaaa#.aa",
"aaa.................aa",
"aaaaaaaaaaaaaaaaaaaaaa"
};


