/* XPM */
static char *help[] = {
/* width height num_colors chars_per_pixel */
"    22    18        4            1",
/* colors */
". c #000000",
"# c None",
"a c #ffff00",
"b c #ffffff",
/* pixels */
"######################",
"######################",
"###....###........####",
"##.aaaa.##.bbbbbb..###",
"#.aa..aa.#.bbbbbb.b.##",
"#.a.##.a.#.bbbbbb....#",
"#...##.a.#.bbbbbbbbb.#",
"#####.aa.#.bb...bbbb.#",
"####.aa.##.bbbbbbbbb.#",
"###.aa.###.bb...bbbb.#",
"###.a.####.bbbbbbbbb.#",
"###...####.bb...bbbb.#",
"##########.bbbbbbbbb.#",
"###...####.bbbbbbbbb.#",
"###.a.####...........#",
"###...################",
"######################",
"######################"
};
