/* XPM */
static char * legend_xpm[] = {
"22 18 6 1",
" 	c None",
".	c #000000",
"+	c #0000FF",
"@	c #FFFCFC",
"#	c #FF0000",
"$	c #008000",
"                      ",
"   ................   ",
"   .++++++++++++++.   ",
"   ................   ",
"   .@@@@@@@@@@@@@@.   ",
"   .@##@@@@@@@@@@@.   ",
"   .@##@@........@.   ",
"   .@@@@@@@@@@@@@@.   ",
"   .@@@@@@@@@@@@@@.   ",
"   .@$$@@@@@@@@@@@.   ",
"   .@$$@@........@.   ",
"   .@@@@@@@@@@@@@@.   ",
"   .@@@@@@@@@@@@@@.   ",
"   .@++@@@@@@@@@@@.   ",
"   .@++@@........@.   ",
"   .@@@@@@@@@@@@@@.   ",
"   ................   ",
"                      "};
