/* XPM */
static char *linear[] = {
/* width height num_colors chars_per_pixel */
"    22    18        4            1",
/* colors */
". c #000000",
"# c #808080",
"a c None",
"b c #ffffff",
/* pixels */
"aaaaaaaaaaaaaaaaaaaaaa",
"aaa.................aa",
"aaa.############..#.aa",
"aaa.aaaaaaaaa...###.aa",
"aaa.aaaaaaa..##aaa#.aa",
"aaa.aaaaaa.##aaaaa#.aa",
"aaa.aaaaa.#aaaaaaa#.aa",
"aaa.aaaa.#aaaaaaaa#.aa",
"aaa.aaa.#aaaaaaaaa#.aa",
"aaa.aa.#aaaaaaaaaa#.aa",
"aaa.aa.#aaaaaaaaaa#.aa",
"aaa.a.#aaaaaaaaaaa#.aa",
"aaa.a.#aaaaaaaaaaa#.aa",
"aaa.a.#aaaaaaaaaaa#.aa",
"aaa..#aaaaaaaaaaaa#.aa",
"aaa..#aaaaaaaaaaaa#.aa",
"aaa.................aa",
"aaaaaaaaaaaaaaaaaaaaaa"
};


