/* XPM */
static char *ly_l_off[] = {
/* width height num_colors chars_per_pixel */
"    22    18        4            1",
/* colors */
"` c #b0b0b0",
". c #ffffff",
"# c None",
"a c #000000",
/* pixels */
"######################",
"#```````````````````##",
"#`.................`##",
"#`...............`.`##",
"#`...............`.`##",
"#`..............`..`##",
"#`..............`..`##",
"#`....```......`...`##",
"#`...`...```...`...`##",
"#`...`......```....`##",
"#`..`..............`##",
"#`..`..............`##",
"#`.`...............`##",
"#`.`...............`##",
"#`.................`##",
"#`.................`##",
"#```````````````````##",
"######################"
};
