/* XPM */
static char *ly_l_on[] = {
/* width height num_colors chars_per_pixel */
"    22    18        4            1",
/* colors */
"` c #0088ff",
". c #000000",
"# c #ffffff",
"a c None",
/* pixels */
"aaaaaaaaaaaaaaaaaaaaaa",
"a...................aa",
"a.#################.aa",
"a.###############`#.aa",
"a.###############`#.aa",
"a.##############`##.aa",
"a.##############`##.aa",
"a.####```######`###.aa",
"a.###`###```###`###.aa",
"a.###`######```####.aa",
"a.##`##############.aa",
"a.##`##############.aa",
"a.#`###############.aa",
"a.#`###############.aa",
"a.#################.aa",
"a.#################.aa",
"a...................aa",
"aaaaaaaaaaaaaaaaaaaaaa"
};
