/* XPM */
static char *onetoone[] = {
/* width height num_colors chars_per_pixel */
"    22    18        2            1",
/* colors */
". c #000000",
"# c None",
/* pixels */
"######################",
"######################",
"######################",
"######################",
"####..###########..###",
"##....#########....###",
"##....####..###....###",
"####..####..#####..###",
"####..###########..###",
"####..###########..###",
"####..####..#####..###",
"####..####..#####..###",
"####..###########..###",
"####..###########..###",
"######################",
"######################",
"######################",
"######################"
};
