/* XPM */
static char * pan_rght_xpm[] = {
"22 18 7 1",
" 	c None",
".	c #333366",
"+	c #000000",
"@	c #6666CC",
"#	c #9999FF",
"$	c #CCCCFF",
"%	c #FFFFFF",
"                      ",
"          .+          ",
"          .@+         ",
"          .@@+        ",
"          .#@@+       ",
"    .......##@@+      ",
"    .$$$$$$$##@@+     ",
"    .%$$$$$$$#@@@+    ",
"    .%%%%%$$$##@@@+   ",
"    .%%%%%$$$##@@@+   ",
"    .%$$$$$$$#@@@+    ",
"    .$$$$$$$##@@+     ",
"    .......##@@+      ",
"          .#@@+       ",
"          .@@+        ",
"          .@+         ",
"          .+          ",
"                      "};
