/* XPM */
static char *3625977[] =
{
/* width height ncolors chars_per_pixel */
"20 20 2 1",
/* colors */
"A c None",
"B c #000000000000",
/* pixels */
"AAAAAAAAAAAAAAAAAAAA",
"AAAAAAAAAAAAAAAAAAAA",
"AAAAAAAAAAAAAAAAAAAA",
"AAAAAAAAAAAAAAAAAAAA",
"AAAAAAAAAAAAAAAAAAAA",
"AAAAAAAAAAAAAAAAAAAA",
"AAAAAAAAAAAAAAAAAAAA",
"AAAAAAAAAAAAAAAAAAAA",
"AAAAAAAAAAAAAAAAAAAA",
"BBAAAAAAAAAAAABBBBBB",
"BBAAAAAAAAAAAABBBBBB",
"AAAAAAAAAAAAAAAAAAAA",
"AAAAAAAAAAAAAAAAAAAA",
"AAAAAAAAAAAAAAAAAAAA",
"AAAAAAAAAAAAAAAAAAAA",
"AAAAAAAAAAAAAAAAAAAA",
"AAAAAAAAAAAAAAAAAAAA",
"AAAAAAAAAAAAAAAAAAAA",
"AAAAAAAAAAAAAAAAAAAA",
"AAAAAAAAAAAAAAAAAAAA",
};
