/* XPM */
static char *3623634[] =
{
/* width height ncolors chars_per_pixel */
"20 20 2 1",
/* colors */
"A c None",
"B c #000000000000",
/* pixels */
"AAAAAAAAAAAAAAAAAAAA",
"AAAAAAAAAAAAAAAAAAAA",
"AAAAAAAAAAAAAAAAAAAA",
"AAAAAAAAAAAAAAAAAAAA",
"AAAAAAAAAAAAAAAAAAAA",
"AAAAAAAAAAAAAAAAAAAA",
"AAAAAAAAAAAAAAAAAAAA",
"AAAAAAAAAAAAAAAAAAAA",
"BBAAAABBBBAAAABBBBBB",
"BBAAAABBBBAAAABBBBBB",
"AAAAAAAAAAAAAAAAAAAA",
"AAAAAAAAAAAAAAAAAAAA",
"AAAAAAAAAAAAAAAAAAAA",
"AAAAAAAAAAAAAAAAAAAA",
"AAAAAAAAAAAAAAAAAAAA",
"AAAAAAAAAAAAAAAAAAAA",
"AAAAAAAAAAAAAAAAAAAA",
"AAAAAAAAAAAAAAAAAAAA",
"AAAAAAAAAAAAAAAAAAAA",
"AAAAAAAAAAAAAAAAAAAA",
};
