/* XPM */
static char *3625726[] =
{
/* width height ncolors chars_per_pixel */
"20 20 2 1",
/* colors */
"A c None",
"B c #000000000000",
/* pixels */
"AAAAAAAAAAAAAAAAAAAA",
"AAAAAAAAAAAAAAAAAAAA",
"AAAAAAAAAAAAAAAAAAAA",
"AAAAAAAAAAAAAAAAAAAA",
"AAAAAAAAAAAAAAAAAAAA",
"AAAAAAAAAAAAAAAAAAAA",
"AAAAAAAAAAAAAAAAAAAA",
"AAAAAAAAAAAAAAAAAAAA",
"AAAAAAAAAAAAAAAAAAAA",
"BBBAAAABBAAAABBBBBBA",
"BBBAAAABBAAAABBBBBBA",
"AAAAAAAAAAAAAAAAAAAA",
"AAAAAAAAAAAAAAAAAAAA",
"AAAAAAAAAAAAAAAAAAAA",
"AAAAAAAAAAAAAAAAAAAA",
"AAAAAAAAAAAAAAAAAAAA",
"AAAAAAAAAAAAAAAAAAAA",
"AAAAAAAAAAAAAAAAAAAA",
"AAAAAAAAAAAAAAAAAAAA",
"AAAAAAAAAAAAAAAAAAAA",
};
