/* XPM */
static char *refresh[] = {
/* width height num_colors chars_per_pixel */
"    22    18        5            1",
/* colors */
". c #000000",
"# c #808080",
"a c None",
"b c #ff0000",
"c c #ffffff",
/* pixels */
"aaaaaaaaaaaaaaaaaaaaaa",
"aaaaaaaaaaaaaaaaaaaaaa",
"aaaaaaaaaa.aaaaaaaaaaa",
"aaaaaaaaa...aaaaaaaaaa",
"aaaaaaaa.....aaaaaaaaa",
"aaaaaaa.......aaaaaaaa",
"aaaaaa.........aaaaaaa",
"aaaaa..a.....a..aaaaaa",
"aaaa..aaa...aaa..aaaaa",
"aaaaaaaaa...aaaaaaaaaa",
"aaaaaaaaa...aaaaaaaaaa",
"aaaaaaaaa...aaaaaaaaaa",
"aaaaaaaaa...aaaaaaaaaa",
"aaaaaaaaa...aaaaaaaaaa",
"aaaaaaaaa...aaaaaaaaaa",
"aaaaaaaaa...aaaaaaaaaa",
"aaaaaaaaaaaaaaaaaaaaaa",
"aaaaaaaaaaaaaaaaaaaaaa"
};
