/* XPM */
static char *save[] = {
/* width height num_colors chars_per_pixel */
"    22    18        3            1",
/* colors */
". c #000000",
"# c #c0c0c0",
"a c #0000ff",
/* pixels */
"######################",
"######################",
"####..............####",
"####.a.########.#.####",
"####.a.########...####",
"####.a.########.a.####",
"####.a.########.a.####",
"####.a.########.a.####",
"####.aa........aa.####",
"####.aaaaaaaaaaaa.####",
"####.aaaaaaaaaaaa.####",
"####.aa.........a.####",
"####.aa......##.a.####",
"####.aa......##.a.####",
"####.aa......##.a.####",
"#####...........a.####",
"######################",
"######################"
};
