/* XPM */
static char * sym_filled_triangle_xpm[] = {
"18 18 2 1",
" 	c None",
".	c #0B76B9",
"                  ",
"        ...       ",
"       ....       ",
"       .....      ",
"      ......      ",
"      .......     ",
"     ........     ",
"     .........    ",
"    ..........    ",
"    ..........    ",
"   ............   ",
"   ............   ",
"  ..............  ",
"  ..............  ",
" ................ ",
" .................",
"..................",
"                  "};
