/* XPM */
static char * sum_vertical2_xpm[] = {
"2 13 2 1",
" 	c None",
".	c #0B76B9",
" .",
" .",
" .",
" .",
" .",
" .",
" .",
" .",
" .",
" .",
" .",
" .",
" ."};
