/* XPM */
static char * sym_square_xpm[] = {
"16 14 2 1",
" 	c None",
".	c #0B76B9",
"................",
".              .",
".              .",
".              .",
".              .",
".              .",
".              .",
".              .",
".              .",
".              .",
".              .",
".              .",
".              .",
"................"};
