/* XPM */
static char * sym_circle_xpm[] = {
"16 16 2 1",
" 	c None",
".	c #0B76B9",
"    ........    ",
"  ...      ...  ",
" ..          .. ",
" .            . ",
"..            ..",
".              .",
".              .",
".              .",
".              .",
".              .",
".              .",
"..            ..",
" .            . ",
" ..          .. ",
"  ...      ...  ",
"    ........    "};
