/* XPM */
static char * sym_cross_xpm[] = {
"15 16 2 1",
" 	c None",
".	c #0B76B9",
"       .       ",
"       .       ",
"       .       ",
"       .       ",
"       .       ",
"       .       ",
"       .       ",
"...............",
"       .       ",
"       .       ",
"       .       ",
"       .       ",
"       .       ",
"       .       ",
"       .       ",
"       .       "};
