/* XPM */
static char *warning[] = {
/* width height num_colors chars_per_pixel */
"    27    43        2            1",
/* colors */
". c #000000",
"# c None",
/* pixels */
"###########################",
"###########################",
"###########################",
"###########################",
"###########################",
"###########################",
"###########################",
"###########################",
"###########################",
"###########################",
"###########################",
"###########################",
"###########..##############",
"##########..#.#############",
"#########..#.#.############",
"#########.#.#.#############",
"#########..#.#.############",
"#########.#.#.#############",
"#########..#.#.############",
"##########..#.#############",
"##########.#.##############",
"##########..#.#############",
"##########.#.##############",
"##########..#.#############",
"##########.#.##############",
"###########################",
"###########################",
"##########....#############",
"##########.#.##############",
"##########..#.#############",
"##########.#.##############",
"###########################",
"###########################",
"###########################",
"###########################",
"###########################",
"###########################",
"###########################",
"###########################",
"###########################",
"###########################",
"###########################",
"###########################"
};

