/* XPM */
static char *windowed[] = {
/* width height num_colors chars_per_pixel */
"    22    18        4            1",
/* colors */
". c #000000",
"# c #808080",
"a c None",
"b c #ffffff",
/* pixels */
"aaaaaaaaaaaaaaaaaaaaaa",
"aa..................aa",
"aaa.##############.aaa",
"aaa.aaaaaaaaaaaaa#.aaa",
"aaa.aaaaaaaaaaaaa#.aaa",
"aaa.aaaaaaaaaaaaa#.aaa",
"aaa.aaaaaaaaaaaaa#.aaa",
"aaa.aaaaaaaaaaaaa#.aaa",
"aaa................aaa",
"aaa.##############.aaa",
"aaa.aaaaaaaaaaaaa#.aaa",
"aaa.aaaaaaaaaaaaa#.aaa",
"aaa.aaaaaaaaaaaaa#.aaa",
"aaa.aaaaaaaaaaaaa#.aaa",
"aaa.aaaaaaaaaaaaa#.aaa",
"aa..................aa",
"a....................a",
"aaaaaaaaaaaaaaaaaaaaaa"
};
