/* XPM */
static char *zoomrect[] = {
/* width height num_colors chars_per_pixel */
"    20    18      256            2",
/* colors */
"`` c #033365",
"`. c #002a55",
"`# c #cdf1f1",
"`a c #1f4a76",
"`b c #bfd0de",
"`c c #cdb5b5",
"`d c #d8f4f4",
"`e c #d4f0f2",
"`f c #a5dde2",
"`g c #a9b8d0",
"`h c #acc9d0",
"`i c #caedef",
"`j c #a5cacd",
"`k c #cbb2b3",
"`l c #fbfefe",
"`m c #032648",
"`n c #b0cfd6",
"`o c #b5afaf",
"`p c #31587f",
"`q c #25496e",
"`r c #22476c",
"`s c #274f78",
"`t c #41668a",
"`u c #89949f",
"`v c #163a60",
"`w c #a8c9d2",
"`x c #a3c4cb",
"`y c #003163",
"`z c #2d4d6d",
"`A c #003061",
"`B c #123c68",
"`C c #013264",
"`D c #69747f",
"`E c #002c5a",
"`F c #41668b",
"`G c #2d4f72",
"`H c #adadad",
"`I c #b3d2db",
"`J c #ade9e9",
"`K c #cc0000",
"`L c None",
"`M c #000000",
"`N c #000000",
"`O c #000000",
"`P c #000000",
"`Q c #000000",
"`R c #000000",
"`S c #000000",
"`T c #000000",
"`U c #000000",
"`V c #000000",
"`W c #000000",
"`X c #000000",
"`Y c #000000",
"`Z c #000000",
"`0 c #000000",
"`1 c #000000",
"`2 c #000000",
"`3 c #000000",
"`4 c #000000",
"`5 c #000000",
"`6 c #000000",
"`7 c #000000",
"`8 c #000000",
".` c #000000",
".. c #000000",
".# c #000000",
".a c #000000",
".b c #000000",
".c c #000000",
".d c #000000",
".e c #000000",
".f c #000000",
".g c #000000",
".h c #000000",
".i c #000000",
".j c #000000",
".k c #000000",
".l c #000000",
".m c #000000",
".n c #000000",
".o c #000000",
".p c #000000",
".q c #000000",
".r c #000000",
".s c #000000",
".t c #000000",
".u c #000000",
".v c #000000",
".w c #000000",
".x c #000000",
".y c #000000",
".z c #000000",
".A c #000000",
".B c #000000",
".C c #000000",
".D c #000000",
".E c #000000",
".F c #000000",
".G c #000000",
".H c #000000",
".I c #000000",
".J c #000000",
".K c #000000",
".L c #000000",
".M c #000000",
".N c #000000",
".O c #000000",
".P c #000000",
".Q c #000000",
".R c #000000",
".S c #000000",
".T c #000000",
".U c #000000",
".V c #000000",
".W c #000000",
".X c #000000",
".Y c #000000",
".Z c #000000",
".0 c #000000",
".1 c #000000",
".2 c #000000",
".3 c #000000",
".4 c #000000",
".5 c #000000",
".6 c #000000",
".7 c #000000",
".8 c #000000",
"#` c #000000",
"#. c #000000",
"## c #000000",
"#a c #000000",
"#b c #000000",
"#c c #000000",
"#d c #000000",
"#e c #000000",
"#f c #000000",
"#g c #000000",
"#h c #000000",
"#i c #000000",
"#j c #000000",
"#k c #000000",
"#l c #000000",
"#m c #000000",
"#n c #000000",
"#o c #000000",
"#p c #000000",
"#q c #000000",
"#r c #000000",
"#s c #000000",
"#t c #000000",
"#u c #000000",
"#v c #000000",
"#w c #000000",
"#x c #000000",
"#y c #000000",
"#z c #000000",
"#A c #000000",
"#B c #000000",
"#C c #000000",
"#D c #000000",
"#E c #000000",
"#F c #000000",
"#G c #000000",
"#H c #000000",
"#I c #000000",
"#J c #000000",
"#K c #000000",
"#L c #000000",
"#M c #000000",
"#N c #000000",
"#O c #000000",
"#P c #000000",
"#Q c #000000",
"#R c #000000",
"#S c #000000",
"#T c #000000",
"#U c #000000",
"#V c #000000",
"#W c #000000",
"#X c #000000",
"#Y c #000000",
"#Z c #000000",
"#0 c #000000",
"#1 c #000000",
"#2 c #000000",
"#3 c #000000",
"#4 c #000000",
"#5 c #000000",
"#6 c #000000",
"#7 c #000000",
"#8 c #000000",
"a` c #000000",
"a. c #000000",
"a# c #000000",
"aa c #000000",
"ab c #000000",
"ac c #000000",
"ad c #000000",
"ae c #000000",
"af c #000000",
"ag c #000000",
"ah c #000000",
"ai c #000000",
"aj c #000000",
"ak c #000000",
"al c #000000",
"am c #000000",
"an c #000000",
"ao c #000000",
"ap c #000000",
"aq c #000000",
"ar c #000000",
"as c #000000",
"at c #000000",
"au c #000000",
"av c #000000",
"aw c #000000",
"ax c #000000",
"ay c #000000",
"az c #000000",
"aA c #000000",
"aB c #000000",
"aC c #000000",
"aD c #000000",
"aE c #000000",
"aF c #000000",
"aG c #000000",
"aH c #000000",
"aI c #000000",
"aJ c #000000",
"aK c #000000",
"aL c #000000",
"aM c #000000",
"aN c #000000",
"aO c #000000",
"aP c #000000",
"aQ c #000000",
"aR c #000000",
"aS c #000000",
"aT c #000000",
"aU c #000000",
"aV c #000000",
"aW c #000000",
"aX c #000000",
"aY c #000000",
"aZ c #000000",
"a0 c #000000",
"a1 c #000000",
"a2 c #000000",
"a3 c #000000",
"a4 c #000000",
"a5 c #000000",
"a6 c #000000",
"a7 c #000000",
"a8 c #000000",
/* pixels */
"`L`L`L`L`L`L`L`L`L`L`L`L`L`L`L`L`L`L`L`L",
"`L`K`K`K`K`K`K`K`K`K`K`L`L`L`L`L`L`L`L`L",
"`L`K`L`L`L`L`L`L`L`L`K`L`L`L`L`L`L`L`L`L",
"`L`K`L`L`L`L`L`L`L`L`K`L`L`L`L`L`L`L`L`L",
"`L`K`L`L`L`L`L`L`L`L`K`L`L`L`L`L`L`L`L`L",
"`L`K`L`L`L`L`L`b```.`.```b`L`L`L`L`L`L`L",
"`L`K`L`L`L`L`g`a`j`e`k`x`a`g`L`L`L`L`L`L",
"`L`K`L`L`L`b`a`f`J`d`c`J`f`a`b`L`L`L`L`L",
"`L`K`L`L`L```j`J`d`l`c`#`J`I```L`L`L`L`L",
"`L`K`L`L`L`.`e`d`l`#`c`J`J`i`.`L`L`L`L`L",
"`L`K`K`K`K`.`k`c`c`c`o`J`#`e`.`L`L`L`L`L",
"`L`L`L`L`L```w`J`#`J`J`J`#`h```L`L`L`L`L",
"`L`L`L`L`L`b`a`f`J`J`#`#`d`B`L`L`L`L`L`L",
"`L`L`L`L`L`L`g`a`n`i`e`h`v`E`s`L`L`L`L`L",
"`L`L`L`L`L`L`L`b```.`.```L`z`A`p`L`L`L`L",
"`L`L`L`L`L`L`L`L`L`L`L`L`L`L`G`y`F`L`L`L",
"`L`L`L`L`L`L`L`L`L`L`L`L`L`L`L`q`C`t`L`L",
"`L`L`L`L`L`L`L`L`L`L`L`L`L`L`L`L`r`m`u`L"
};
