/* XPM */
static char *zoomout[] = {
/* width height num_colors chars_per_pixel */
"    22    18        5            1",
/* colors */
". c #000000",
"# c #808080",
"a c None",
"b c #ff0000",
"c c #ffffff",
/* pixels */
"aaaaaaaaaaaaaaaaaaaaaa",
"aaaaaaaaaaaaaaaaaaaaaa",
"aaaaaaa...aaaaaaaaaaaa",
"aaaaa..aaa..aaaaaaaaaa",
"aaaa.aaaaaaa.aaaaaaaaa",
"aaaa.aaaaaaa.aaaaaaaaa",
"aaa.aaaaaaaaa.aaaaaaaa",
"aaa.abbbbbbba.aaaaaaaa",
"aaa.aaaaaaaaa.aaaaaaaa",
"aaaa.aaaaaaa..aaaaaaaa",
"aaaa..aaaaaa.aaaaaaaaa",
"aaaaa..aaa....#aaaaaaa",
"aaaaaaa....a...#aaaaaa",
"aaaaaaaaaaaa#...#aaaaa",
"aaaaaaaaaaaaa#...caaaa",
"aaaaaaaaaaaaaa#.ccaaaa",
"aaaaaaaaaaaaaaaccaaaaa",
"aaaaaaaaaaaaaaaaaaaaaa"
};
