#define node_cursor_width 16
#define node_cursor_height 16
#define node_cursor_x_hot 3
#define node_cursor_y_hot 1
static unsigned char node_cursor_bits[] = {
   0x00, 0x00, 0x08, 0x00, 0x18, 0x00, 0x38, 0x00, 0x78, 0x00, 0xf8, 0x00,
   0xf8, 0x01, 0xf8, 0x03, 0xf8, 0x07, 0xf8, 0x0f, 0x78, 0x1f, 0x38, 0x38,
   0x38, 0x00, 0x18, 0x00, 0x18, 0x00, 0x08, 0x00};
