#define node_cursor_mask_width 16
#define node_cursor_mask_height 16
static unsigned char node_cursor_mask_bits[] = {
    0x0c, 0x00, 0x1c, 0x00, 0x3c, 0x00, 0x7c, 0x00, 0xfc, 0x00, 0xfc, 0x01,
    0xfc, 0x03, 0xfc, 0x07, 0xfc, 0x0f, 0xfc, 0x1f, 0xfc, 0x3f, 0x7c, 0x7e,
    0x7c, 0x70, 0x3c, 0x00, 0x3c, 0x00, 0x1c, 0x00, };
